<svg width="112" height="41" viewBox="0 0 112 41" fill="none" xmlns="http://www.w3.org/2000/svg">
<path d="M55.1191 30.5757H56.2991C60.1341 30.5757 62.5746 28.1621 62.5746 24.488V10.5962H59.1687V24.5953C59.1687 26.3116 58.0423 27.4112 56.2991 27.4112H55.1191V30.5757Z" fill="#05152E"/>
<path d="M72.7194 30.8976C76.9299 30.8976 80.309 27.7062 80.309 23.3348C80.309 18.9635 76.9567 15.7989 72.7194 15.7989C68.4553 15.7989 65.1299 18.9635 65.1299 23.3348C65.1299 27.7062 68.4821 30.8976 72.7194 30.8976ZM72.7194 27.9207C70.2521 27.9207 68.4821 26.0166 68.4821 23.3616C68.4821 20.7066 70.2521 18.7757 72.7194 18.7757C75.1599 18.7757 76.9567 20.7066 76.9567 23.3616C76.9567 26.0166 75.1599 27.9207 72.7194 27.9207Z" fill="#05152E"/>
<path d="M90.4219 15.7989C88.4642 15.7989 86.8283 16.4962 85.8092 17.703V10.5962H82.591V30.5757H85.6215V28.8594C86.6674 30.1735 88.4106 30.8976 90.3951 30.8976C94.5251 30.8976 97.7165 27.6257 97.7165 23.3616C97.7165 19.0707 94.4983 15.7989 90.4219 15.7989ZM90.0733 27.9207C87.5792 27.9207 85.8092 26.0435 85.8092 23.3616C85.8092 20.7066 87.5792 18.7757 90.0733 18.7757C92.5406 18.7757 94.3642 20.7066 94.3642 23.3616C94.3642 26.0166 92.5406 27.9207 90.0733 27.9207Z" fill="#05152E"/>
<path d="M105.478 30.8976C108.777 30.8976 111.056 29.1276 111.056 26.5262C111.056 24.5148 109.715 23.0666 107.221 22.3694L104.647 21.6453C103.815 21.4039 102.903 20.948 102.903 20.0362C102.903 19.1244 103.735 18.5076 105.076 18.5076C106.712 18.5076 107.999 19.3389 108.535 20.7066L111.056 19.5266C110.171 17.2203 107.918 15.7989 105.076 15.7989C101.884 15.7989 99.7121 17.5689 99.7121 20.1703C99.7121 22.128 100.973 23.603 103.493 24.3003L105.961 24.9439C106.846 25.1853 107.865 25.6144 107.865 26.6066C107.865 27.5989 106.926 28.2694 105.478 28.2694C103.762 28.2694 102.34 27.3576 101.589 25.6412L99.0953 26.848C100.007 29.3689 102.474 30.8976 105.478 30.8976Z" fill="#05152E"/>
<path d="M8.00841 5.50067L17.7139 9.18729C18.3147 9.41257 18.8158 9.84436 19.1273 10.4053C19.4387 10.9663 19.5404 11.6199 19.414 12.249L18.8432 15.0729C18.7438 15.5728 18.5051 16.0345 18.1545 16.4044C17.804 16.7744 17.3559 17.0377 16.8621 17.1639L13.1178 18.0986L11.0323 23.2944C10.6274 24.3097 9.92326 25.1777 9.01336 25.7833L5.44922 28.0976" stroke="#153CF5" stroke-width="2.2" stroke-linecap="round" stroke-linejoin="round"/>
<path d="M29.7482 6.71783L27.9887 9.08613C27.4707 9.78391 27.1286 10.5963 26.9917 11.4544C26.8548 12.3126 26.9268 13.1911 27.2016 14.0154L27.668 15.3968" stroke="#153CF5" stroke-width="2.2" stroke-linecap="round" stroke-linejoin="round"/>
<path d="M15.5113 34.0855C12.5785 33.5906 9.83843 32.2982 7.59112 30.3498C5.34381 28.4016 3.67593 25.8725 2.77007 23.0394C1.8642 20.2064 1.7553 17.1789 2.45527 14.2881C3.15526 11.3974 4.63712 8.75498 6.73864 6.65022C8.84014 4.54548 11.4803 3.05952 14.3699 2.35509C17.2596 1.65066 20.2874 1.7549 23.1218 2.65639C25.9562 3.55789 28.4877 5.22187 30.4396 7.46617C32.3912 9.71047 33.688 12.4485 34.1875 15.3806" stroke="#153CF5" stroke-width="2.2" stroke-linecap="round" stroke-linejoin="round"/>
<path d="M39.9554 24.3105H22.0414C21.2804 24.3105 20.6635 24.9274 20.6635 25.6885V38.0904C20.6635 38.8515 21.2804 39.4684 22.0414 39.4684H39.9554C40.7164 39.4684 41.3333 38.8515 41.3333 38.0904V25.6885C41.3333 24.9274 40.7164 24.3105 39.9554 24.3105Z" stroke="#153CF5" stroke-width="2.2" stroke-linecap="round" stroke-linejoin="round"/>
<path d="M24.7975 29.1334H37.1994" stroke="#153CF5" stroke-width="2.2" stroke-linecap="round" stroke-linejoin="round"/>
<path d="M24.7975 34.6454H37.1994" stroke="#153CF5" stroke-width="2.2" stroke-linecap="round" stroke-linejoin="round"/>
<path d="M34.0685 21.1181C33.977 20.8439 33.8015 20.6054 33.5668 20.4364C33.3322 20.2674 33.0504 20.1765 32.7613 20.1765H29.2354C28.9463 20.1765 28.6645 20.2674 28.4299 20.4364C28.1953 20.6054 28.0198 20.8439 27.9282 21.1181L26.8644 24.3105H35.1323L34.0685 21.1181Z" stroke="#153CF5" stroke-width="2.2" stroke-linecap="round" stroke-linejoin="round"/>
<path d="M23.4194 24.3104V22.9324" stroke="#153CF5" stroke-width="2.2" stroke-linecap="round" stroke-linejoin="round"/>
<path d="M38.5774 24.3104V22.9324" stroke="#153CF5" stroke-width="2.2" stroke-linecap="round" stroke-linejoin="round"/>
</svg>
